<?xml version="1.0" encoding="UTF-8" standalone="no"?>
<!-- Created with Inkscape (http://www.inkscape.org/) -->

<svg
   width="1024"
   height="1024"
   viewBox="0 0 1024 1024"
   version="1.1"
   id="svg1"
   xml:space="preserve"
   inkscape:version="1.4.3 (0d15f75, 2025-12-25)"
   sodipodi:docname="lawki_logo_v2_proj.svg"
   inkscape:export-filename="lawki_logo_1024.png"
   inkscape:export-xdpi="96"
   inkscape:export-ydpi="96"
   xmlns:inkscape="http://www.inkscape.org/namespaces/inkscape"
   xmlns:sodipodi="http://sodipodi.sourceforge.net/DTD/sodipodi-0.dtd"
   xmlns="http://www.w3.org/2000/svg"
   xmlns:svg="http://www.w3.org/2000/svg"><sodipodi:namedview
     id="namedview1"
     pagecolor="#ffffff"
     bordercolor="#000000"
     borderopacity="0.25"
     inkscape:showpageshadow="2"
     inkscape:pageopacity="0.0"
     inkscape:pagecheckerboard="0"
     inkscape:deskcolor="#d1d1d1"
     inkscape:document-units="px"
     inkscape:zoom="0.49881659"
     inkscape:cx="780.84812"
     inkscape:cy="634.50175"
     inkscape:window-width="2560"
     inkscape:window-height="1369"
     inkscape:window-x="-8"
     inkscape:window-y="-8"
     inkscape:window-maximized="1"
     inkscape:current-layer="layer6"><inkscape:page
       x="0"
       y="0"
       width="1024"
       height="1024"
       id="page2"
       margin="0"
       bleed="0" /></sodipodi:namedview><defs
     id="defs1"><inkscape:path-effect
       effect="spiro"
       id="path-effect1"
       is_visible="true"
       lpeversion="1" /></defs><g
     inkscape:groupmode="layer"
     id="layer1"
     inkscape:label="background"
     style="display:inline"><path
       style="fill:#1e2a3a;fill-opacity:1;stroke:none;stroke-width:4;stroke-linecap:round;stroke-linejoin:round"
       d="m 669.09242,912.91424 c 13.46027,21.86113 28.57247,42.85622 46.77977,60.95545 40.76514,40.52321 96.24615,65.00171 153.33339,71.70781 57.08724,6.706 115.57549,-3.8132 168.45472,-26.3456 61.421,-26.1722 115.78,-68.55128 156.5621,-121.41287 40.7821,-52.86159 67.945,-116.06294 78.7543,-181.94684 11.816,-72.02 4.0703,-147.02559 -21.2635,-215.47044 -15.1791,-41.00963 -36.5392,-79.76497 -48.1974,-121.91091 -19.5976,-70.84805 -9.5752,-149.66641 28.3514,-212.6353 11.6438,-19.33201 25.8198,-37.28895 34.7211,-58.02713 4.4506,-10.369091 7.536,-21.423145 8.0183,-32.696724 0.4822,-11.27358 -1.7311,-22.790818 -7.3002,-32.604625 -4.9024,-8.638866 -12.348,-15.796884 -21.1227,-20.451806 -8.7747,-4.654922 -18.845,-6.80438 -28.7623,-6.246752 -9.9173,0.557628 -19.6564,3.808402 -27.9806,9.227846 -8.3243,5.419444 -15.2218,12.986146 -19.9466,21.723418 -6.5871,12.181116 -8.8417,26.142202 -12.0394,39.616008 -3.1978,13.473806 -7.7824,27.298265 -17.7296,36.932705 -6.2481,6.05165 -14.2847,10.05891 -22.678,12.34212 -8.3934,2.2832 -17.16,2.91056 -25.8579,2.82453 -17.3958,-0.17207 -34.8486,-3.14509 -52.1114,-0.99097 -17.0746,2.13064 -33.302,9.27288 -47.3695,19.18188 -14.06746,9.909 -26.06744,22.5248 -36.57778,36.14883 -21.0207,27.24805 -36.24297,58.52741 -56.39207,86.42616 -33.49504,46.37775 -79.46526,81.96844 -124.45963,117.30001 -44.99436,35.33158 -90.41111,71.86874 -122.19732,119.43396 -38.87751,58.17673 -54.72618,130.23237 -49.72555,200.02482 5.00064,69.79245 30.05019,137.31157 66.73637,196.89442 z"
       id="path1"
       inkscape:path-effect="#path-effect1"
       inkscape:original-d="m 669.09242,912.91424 c 5.67028,132.30636 31.65904,40.63697 46.77977,60.95545 15.12073,20.31849 214.5254,29.29641 321.78811,45.36221 107.2627,16.0658 156.8776,-201.29476 235.3164,-303.35971 78.4388,-102.06495 -14.1757,-143.64696 -21.2635,-215.47044 -7.0879,-71.82348 -32.1316,-81.27394 -48.1974,-121.91091 -16.0658,-40.63697 18.9009,-142.70191 28.3514,-212.6353 9.4505,-69.933392 22.6811,-81.273941 35.4392,-123.328479 12.7581,-42.0545381 -64.7356,3.30766 -97.8122,4.252706 -33.0766,0.945046 -19.3735,50.087427 -29.769,76.548713 -10.3955,26.46128 -67.0982,9.92298 -100.6473,14.17568 -33.5492,4.25271 -93.55958,94.50458 -140.33935,141.75687 -46.77977,47.25229 -164.43797,157.82265 -246.65695,236.73397 -82.21899,78.91133 11.34055,264.61283 17.01082,396.91924 z"
       transform="matrix(0.94255192,0,0,0.94255192,-388.8514,4.2974212)" /></g><g
     inkscape:groupmode="layer"
     id="layer6"
     inkscape:label="fingerprint"
     inkscape:export-filename="lawki_logo_svg.svg"
     inkscape:export-xdpi="96"
     inkscape:export-ydpi="96"
     style="display:inline"><path
       style="display:inline;fill:#06b6d4;fill-opacity:1;stroke:none;stroke-width:2.61337"
       d="m 681.58587,180.34888 c 25.20704,-25.20698 47.62337,-50.6432 56.3465,-86.240792 3.59433,-14.668065 -4.73641,-48.504113 3.53099,-59.030446 10.4546,-13.311373 28.89242,10.341128 30.86217,19.832112 7.58321,36.536266 -21.97541,75.961376 -45.4032,100.204936 -5.42137,5.61024 -17.13927,20.64208 -5.00061,26.22235 15.64749,7.19351 37.15341,-22.02364 44.55395,-32.38671 17.45682,-24.44505 34.15846,-60.724905 32.42888,-91.429234 C 797.11738,25.791336 768.11166,0.05596956 736.4684,5.8508464 703.57485,11.874605 716.84749,50.957097 715.32546,73.201235 c -2.26354,33.087435 -22.77347,70.347085 -52.035,87.515185 -13.65757,8.01304 -37.09818,-3.2911 -52.26535,-3.7748 -27.43354,-0.87497 -60.97169,10.12578 -82.51617,26.96028 -45.99892,35.94251 -46.1074,98.16486 -84.98267,140.18363 C 396.83262,374.55517 329.96204,401.48045 285.56738,454.76142 169.10993,594.53031 161.6394,829.51096 336.6227,928.67032 533.10379,1040.012 773.5548,904.40172 783.4041,679.50004 788.1899,570.21544 719.45638,499.58073 679.84592,405.09758 655.90434,347.99037 705.20047,241.23936 634.6382,212.76177 536.27246,173.06334 529.16797,301.56437 482.86594,350.21709 444.88496,390.1259 395.68328,414.97375 354.47246,450.87775 282.24633,513.80329 230.88891,616.07502 251.66249,713.47368 c 7.24631,33.97605 19.6749,70.39668 48.37532,92.52616 86.93959,67.03531 214.18072,3.08724 261.69438,-82.07274 18.61634,-33.36605 32.78573,-77.56518 17.07188,-114.98769 -22.08758,-52.60105 -86.54635,-42.8497 -115.73612,-4.11765 -15.48811,20.55156 -18.04944,48.08424 -32.94121,69.44154 -10.06107,14.42944 -34.52004,36.01166 -50.86972,17.91641 -19.00878,-21.03875 -5.29911,-65.81166 3.89598,-88.46701 26.76782,-65.953 114.39735,-137.94955 188.67194,-106.53863 21.5687,9.12146 36.85661,25.40199 50.62381,43.82817 71.20715,95.30453 25.5539,225.22539 -58.46405,294.64588 -20.42961,16.8802 -41.30459,29.87608 -65.33392,41.01922 -10.65978,4.94344 -26.24802,7.36698 -35.45171,14.47426 -7.08668,5.47261 -6.25842,16.17334 1.86729,20.23543 10.74821,5.37272 28.77691,-4.11489 38.81125,-8.18295 37.96203,-15.3903 73.38906,-40.38948 101.88269,-69.50397 88.18874,-90.11031 114.93987,-267.45812 -2.54697,-348.03625 -88.88141,-60.95912 -198.99639,18.92354 -239.15246,99.76535 -16.55874,33.33648 -31.41699,85.94783 -8.1022,119.97045 37.65455,54.94805 98.81525,-10.9708 113.34829,-49.40983 5.03962,-13.32916 8.30954,-27.78212 17.30541,-39.18823 20.07668,-25.45517 55.21869,-28.03741 69.14527,5.21459 10.87054,25.95541 -1.60724,60.28205 -13.38348,83.62743 -33.24663,65.90832 -149.84208,145.03247 -220.68548,84.79294 -94.26274,-80.1533 -40.84153,-235.33172 35.84087,-306.69436 42.68006,-39.71914 97.89325,-65.35554 137.59854,-108.08528 13.94637,-15.00868 27.36897,-30.67999 36.82079,-48.95005 18.62021,-35.9905 28.77695,-114.87733 89.5297,-91.08027 15.91442,6.23367 26.95255,21.96348 28.47279,38.81311 1.3634,15.11376 -4.18841,29.46362 -4.84952,44.42709 -1.68981,38.24905 2.70682,73.97623 16.90608,109.76098 19.40253,48.89766 55.43959,90.0522 76.62014,138.50792 17.39583,39.79763 21.45795,82.60779 19.40045,125.44113 C 748.46502,891.67533 516.65117,1005.036 349.69969,906.47497 203.17896,819.97549 189.6266,622.09171 287.21303,493.84885 c 45.96268,-60.40201 114.48746,-91.10846 167.01079,-143.63176 56.07247,-56.07248 67.08431,-192.63433 177.70822,-165.69007 107.48363,26.17934 49.95299,147.20332 73.64799,223.1839 11.67954,37.45196 35.55005,68.28768 54.73937,101.92092 27.52628,48.24575 49.37624,103.35026 51.83149,159.41477 5.67209,129.52213 -78.79178,254.00685 -201.12578,298.71919 -28.76885,10.51492 -60.81033,20.24064 -91.46759,22.48787 -21.40921,1.56935 -44.10075,-2.82096 -65.2833,0.62303 -14.09142,2.29116 -15.74106,18.2676 -2.51066,23.8066 33.96449,14.219 91.47822,-2.2673 125.28793,-10.522 C 746.14596,962.87716 856.66375,805.0593 832.61398,632.45962 819.8539,540.88208 753.70626,477.06365 726.52109,392.03079 706.291,328.75227 759.22952,217.6168 681.58587,180.34888 m -93.83472,88.48313 c -27.48444,12.17658 -7.87248,53.82337 20.16882,42.96104 29.66625,-11.49175 9.18931,-55.96784 -20.16882,-42.96104 m -31.05992,66.05181 c -10.3739,4.89643 -15.24831,21.83579 -21.49187,30.77951 -11.24285,16.10561 -26.73143,31.27349 -41.77521,43.81 -26.95288,22.4607 -60.17777,37.40351 -88.41035,58.34681 -54.20291,40.20813 -93.92854,97.6416 -105.9824,164.63948 -6.79369,37.76139 -3.75227,86.32843 20.68916,117.56279 39.07675,49.93699 115.61693,33.74841 157.98501,-3.13161 23.44938,-20.41198 42.42795,-50.79886 51.10188,-80.45753 2.22291,-7.60138 7.75418,-24.87857 -0.40144,-30.91869 -19.8442,-14.69656 -30.59438,41.07384 -35.81868,51.78727 -20.98157,43.02684 -87.32004,89.91684 -135.05778,62.20025 -35.07123,-20.3624 -37.44129,-65.36903 -34.62487,-101.12842 9.62029,-122.14804 121.65671,-162.14622 201.8152,-231.19944 18.79929,-16.19488 35.29027,-39.06342 45.40913,-61.72844 4.33536,-9.71029 1.7374,-27.72481 -13.43778,-20.56198 m 46.49392,7.49319 c -12.8794,24.75256 -3.43503,61.69457 6.27334,86.24077 23.84299,60.28318 72.40618,106.86555 90.81008,169.8682 7.32843,25.08787 5.95249,47.52517 7.56586,73.17201 0.46053,7.31935 3.00533,19.09909 12.91353,17.83579 9.35897,-1.19334 10.94793,-13.0341 11.97399,-20.44717 3.10033,-22.40141 -2.18144,-48.70596 -7.01155,-70.56063 -13.88596,-62.83213 -58.72014,-108.17962 -85.90192,-164.64149 -14.21642,-29.53056 -10.21934,-63.75304 -23.55654,-91.46748 h -13.06679 m -94.08081,178.85767 c -45.5433,7.31814 -76.97286,40.8527 -97.45451,79.86466 -5.13126,9.77361 -23.64408,46.41469 -4.11973,51.38597 19.70609,5.01751 26.9309,-41.62847 35.18759,-53.99933 37.07146,-55.54298 110.20287,-77.93031 150.72402,-13.06677 57.51555,92.0674 -34.79214,210.12337 -115.69773,247.4603 -16.3847,7.56132 -34.46944,15.38184 -52.26713,18.75325 -13.61194,2.57851 -31.05112,0.19235 -43.83018,5.49294 -10.63532,4.4114 -8.01152,17.35832 2.16961,20.15868 24.41689,6.7159 53.99278,-3.05112 77.13845,-9.80814 C 555.01868,840.0159 627.4995,751.09653 634.31152,653.36647 639.32438,581.44909 585.90073,508.89462 509.10434,521.23468 m 196.88919,200.07103 c -13.56719,6.00805 -23.2388,46.8959 -30.61446,60.11526 -13.85665,24.83566 -32.64048,49.72397 -54.13434,68.45946 -12.63943,11.01776 -32.64774,20.63539 -42.2432,34.45152 -6.23554,8.97887 -0.0613,20.71448 11.22184,18.64035 13.06546,-2.40194 26.36459,-15.98345 36.48203,-23.98199 36.50325,-28.85842 63.10008,-66.29048 82.9441,-108.02276 3.41713,-7.18675 22.21548,-61.11864 -3.65597,-49.66184 z"
       id="path139" /></g></svg>
