<?xml version="1.0" encoding="UTF-8" standalone="no"?>
<!-- Created with Inkscape (http://www.inkscape.org/) -->

<svg
   width="673.38916"
   height="1077.1071"
   viewBox="0 0 673.38916 1077.1071"
   version="1.1"
   id="svg1"
   xml:space="preserve"
   xmlns="http://www.w3.org/2000/svg"
   xmlns:svg="http://www.w3.org/2000/svg"><defs
     id="defs1" /><g
     id="layer6"
     transform="translate(-626.00391,-0.77835706)"><path
       style="fill:#34d399;fill-opacity:0.6;stroke:none;stroke-width:2.77265"
       d="m 1135.6799,186.78171 c 26.7434,-26.74334 50.526,-53.72988 59.7808,-91.497127 3.8134,-15.562076 -5.0251,-51.460415 3.7462,-62.628323 11.0918,-14.122694 30.6534,10.971415 32.7432,21.04087 8.0454,38.763133 -23.3148,80.59118 -48.1705,106.31237 -5.7518,5.95219 -18.1839,21.90021 -5.3054,27.82059 16.6012,7.63195 39.4179,-23.36597 47.2695,-34.36066 18.5208,-25.93496 36.2404,-64.426055 34.4054,-97.001798 -1.8961,-33.663674 -32.6697,-60.967598 -66.2416,-54.8195263 -34.8984,6.3909034 -20.8168,47.8554543 -22.4316,71.4553623 -2.4015,35.104092 -24.1615,74.634702 -55.2065,92.849192 -14.49,8.50143 -39.3593,-3.4917 -55.4509,-4.00488 -29.1056,-0.9283 -64.68789,10.74295 -87.54549,28.6035 -48.80253,38.13319 -48.91762,104.14796 -90.16232,148.72775 -49.53961,53.54574 -120.48592,82.11211 -167.58641,138.64052 -123.55547,148.28774 -131.48133,397.59035 54.16712,502.79342 208.45651,118.12793 463.5629,-25.74776 474.0125,-264.35709 5.0775,-115.94544 -67.8453,-190.8853 -109.87,-291.12715 -25.4008,-60.58787 26.8999,-173.8453 -47.9631,-204.05858 -104.36109,-42.11804 -111.89859,94.21507 -161.02271,145.83315 -40.2959,42.34123 -92.4964,68.70355 -136.219,106.79588 C 712.00081,540.56 657.51318,649.06514 679.5529,752.4002 c 7.68797,36.04687 20.87408,74.68732 51.32378,98.16559 92.23851,71.12107 227.23493,3.2754 277.64452,-87.07504 19.751,-35.39969 34.784,-82.29274 18.1124,-121.99613 -23.4338,-55.80706 -91.8213,-45.46137 -122.79018,-4.36862 -16.4321,21.80417 -19.14954,51.01495 -34.94896,73.67397 -10.67428,15.30891 -36.62402,38.20655 -53.9702,19.0084 -20.16736,-22.32105 -5.62209,-69.82284 4.13344,-93.85903 28.3993,-69.9728 121.36981,-146.3575 200.1714,-113.0321 22.8833,9.6774 39.103,26.95022 53.7093,46.49947 75.5472,101.1133 27.1114,238.95277 -62.0274,312.6044 -21.67479,17.90904 -43.82209,31.69702 -69.31599,43.51933 -11.30949,5.24473 -27.84783,7.81599 -37.61247,15.35645 -7.51861,5.80617 -6.63987,17.1591 1.98109,21.46877 11.40331,5.70019 30.53085,-4.36569 41.17678,-8.68169 40.2758,-16.32834 77.86209,-42.8512 108.09239,-73.74021 93.5638,-95.60249 121.9454,-283.75956 -2.7022,-369.24889 -94.29869,-64.67454 -211.12513,20.07693 -253.72869,105.846 -17.56799,35.36833 -33.33184,91.18631 -8.59602,127.28259 39.94957,58.29711 104.83799,-11.63946 120.25681,-52.42133 5.34678,-14.14157 8.816,-29.47543 18.36016,-41.57673 21.30035,-27.00665 58.58425,-29.74628 73.35964,5.53241 11.5331,27.53738 -1.7052,63.95621 -14.19919,88.72448 -35.273,69.9254 -158.97488,153.87213 -234.13615,89.96103 -100.00801,-85.0386 -43.33081,-249.67507 38.02535,-325.38723 45.28139,-42.14 103.85979,-69.33893 145.9851,-114.67302 14.7964,-15.92346 29.0371,-32.54993 39.065,-51.93354 19.7551,-38.1841 30.53089,-121.87904 94.98649,-96.63156 16.8844,6.6136 28.5953,23.30214 30.2082,41.17875 1.4465,16.03493 -4.4437,31.25941 -5.1451,47.13489 -1.7928,40.58032 2.8718,78.48505 17.9365,116.45086 20.5851,51.87795 58.8186,95.54084 81.2901,146.94991 18.4561,42.22328 22.7658,87.6427 20.5829,133.08671 C 1206.6353,941.46315 960.69251,1061.7331 783.56542,957.16483 628.11433,865.39324 613.73596,655.44854 717.27023,519.38934 766.03431,455.30586 838.73565,422.72787 894.46025,367.0033 953.95031,307.51323 965.63331,162.628 1082.9997,191.2145 c 114.0347,27.77496 52.9976,156.17529 78.1368,236.78685 12.3914,39.73464 37.7168,72.44978 58.0757,108.13295 29.204,51.18631 52.3857,109.64941 54.9906,169.13102 6.0178,137.41644 -83.5941,269.48845 -213.3843,316.92598 -30.5223,11.1558 -64.51669,21.4743 -97.04249,23.8585 -22.7141,1.665 -46.78867,-2.9929 -69.26229,0.661 -14.95029,2.4308 -16.70047,19.381 -2.66368,25.2576 36.0346,15.0856 97.05377,-2.4055 132.92416,-11.1633 179.4007,-43.8004 296.6545,-211.23718 271.1389,-394.35673 -13.5378,-97.15914 -83.7171,-164.86727 -112.5592,-255.08285 -21.4631,-67.13531 34.702,-185.04443 -47.674,-224.58381 m -99.5539,93.87613 c -29.1596,12.91873 -8.3523,57.10388 21.3981,45.57949 31.4744,-12.19216 9.7494,-59.37905 -21.3981,-45.57949 m -32.953,70.07763 c -11.00619,5.19487 -16.17769,23.16667 -22.80179,32.65551 -11.9281,17.08724 -28.3607,33.17959 -44.32139,46.4802 -28.59565,23.82967 -63.84558,39.68323 -93.79892,61.90302 -57.50655,42.65879 -99.65344,103.59281 -112.44197,174.67417 -7.20777,40.06293 -3.98097,91.59011 21.95015,124.72819 41.45846,52.98062 122.66373,35.80536 167.61412,-3.32248 24.87861,-21.65608 45.01391,-53.89503 54.21651,-85.36138 2.3584,-8.06468 8.2268,-26.39491 -0.4259,-32.80317 -21.0537,-15.59231 -32.4591,43.57727 -38.00181,54.94368 -22.26039,45.64931 -92.64216,95.39723 -143.28949,65.99133 -37.2088,-21.60348 -39.72332,-69.35324 -36.73524,-107.29215 10.20664,-129.59291 129.07163,-172.02896 214.11574,-245.29094 19.9451,-17.18194 37.44119,-41.44431 48.17679,-65.49075 4.5996,-10.30213 1.8433,-29.41463 -14.2568,-21.81523 m 49.3277,7.9499 c -13.6644,26.26122 -3.6444,65.45482 6.6557,91.4971 25.2962,63.95741 76.8193,113.37896 96.3449,180.22159 7.7751,26.61696 6.3153,50.4218 8.027,77.6318 0.4886,7.76547 3.1885,20.26318 13.7006,18.92288 9.9294,-1.26608 11.6152,-13.82852 12.7038,-21.69342 3.2893,-23.76676 -2.3144,-51.67456 -7.4389,-74.86126 -14.7323,-66.66172 -62.2991,-114.77312 -91.1376,-174.67631 -15.0829,-31.33043 -10.8422,-67.63876 -24.9923,-97.04238 h -13.8632 m -99.81499,189.75896 c -48.31914,7.76417 -81.66432,43.34265 -103.39432,84.73237 -5.444,10.36931 -25.08517,49.24364 -4.37082,54.51792 20.90716,5.32332 28.57232,-44.1657 37.33226,-57.29056 39.33094,-58.9283 116.91968,-82.68013 159.91057,-13.86319 61.0211,97.67887 -36.9127,222.93029 -122.74945,262.54289 -17.38334,8.02218 -36.57034,16.31935 -55.45279,19.89625 -14.44158,2.73567 -32.94367,0.20407 -46.5016,5.82773 -11.28354,4.68027 -8.49982,18.4163 2.30184,21.38734 25.90509,7.12523 57.28362,-3.23708 81.84,-10.40594 99.7971,-29.13403 176.6956,-123.47299 183.9228,-227.15965 5.3184,-76.30071 -51.3614,-153.27734 -132.83849,-140.18516 m 208.88949,212.26526 c -14.3941,6.37424 -24.6552,49.75418 -32.4804,63.77925 -14.7012,26.34939 -34.6299,52.75463 -57.4338,72.63204 -13.4098,11.68928 -34.6376,21.8931 -44.8179,36.55132 -6.6156,9.52613 -0.065,21.97702 11.9058,19.77647 13.8618,-2.54834 27.9715,-16.95763 38.7056,-25.44368 38.7281,-30.61733 66.946,-70.33085 87.9995,-114.6067 3.6254,-7.62478 23.5695,-64.84379 -3.8788,-52.6887 z"
       id="path139" /></g></svg>
